<svg width="30" height="30" viewBox="0 0 30 30" fill="none" xmlns="http://www.w3.org/2000/svg"><path d="M14.178 6.33c1.003.05 2.004.102 3.007.146.172.008.451.044.496-.036.92-1.637 1.307.058 1.892.327.2.091.382.493-.017.642-.87.327-.504 1.1-.393 1.52.997 3.78.457 7.696 1.067 11.501.24 1.512.266 3.021.257 4.539 0 .446-.027.903-.65.748-2.057-.51-3.96.404-5.933.63-2.22.258-4.413.732-6.652.862-1.674.097-2.28-.548-2.289-2.246-.022-4.597-.07-9.19-.18-13.785-.022-.897-.319-1.805-.604-2.67-.29-.883-.1-1.329.845-1.39 3.05-.202 6.074-.783 9.149-.789h.005Zm.025 1.666c-1.742.103-3.981.258-6.223.358-.667.03-1.058.221-.997.958.158 1.83-.07 3.663.255 5.505.524 2.98.853 5.998.56 9.036-.067.678.24.786.784.756 2.97-.164 5.946-.216 8.907-.562.9-.105 1.026-.493.926-1.374-.454-4.068-.84-8.141-1.17-12.22-.199-2.451-.135-2.457-3.044-2.454l.002-.003Z" fill="#F3F3F3"/><path d="M25.707 14.091c0 2.213-.077 4.43.04 6.64.049.95-.707 1.576-.65 2.485.02.33-.393.324-.662.265-.495-.108-.614-.512-.62-.947-.014-1.381-.056-2.769 0-4.148.127-3.093-.247-6.142-.72-9.183-.205-1.32-.053-2.655-.333-3.982-.186-.87-.51-1.13-1.35-1.127-3.568.02-7.134 0-10.647.767-.585.128-1.092-.064-1.474-.523-.144-.172-.18-.618-.072-.593 1.158.285 1.427-1.18 2.44-1.185 3.201-.017 6.41-.216 9.604-.08 2.998.127 4.228 1.559 4.417 4.693.138 2.299.027 4.611.027 6.918Z" fill="#F3F3F3"/></svg>