<svg xmlns="http://www.w3.org/2000/svg" width="49" height="72" fill="none" viewBox="0 0 49 72"><g clip-path="url(#a)"><path fill="#5f267a" d="M11.13 40.666c-2.277 0-4.057-.945-5.142-2.734-2.24-3.684-1.205-10.54 1.089-15.04 2.161-4.237 3.19-4.805 3.91-4.805.362 0 1.012.173 1.269 1.343.19.857.206 1.79.227 2.69.04 1.946.074 3.782 1.715 4.87l2.067 1.375-2.477-.126c-3.02-.153-3.453-2.765-3.805-4.864q-.06-.37-.126-.72c-.426.734-.96 1.91-1.163 2.458-1.377 3.755-1.292 7.445.223 9.635 1.012 1.46 2.564 2.198 4.614 2.198.971 0 2.05-.17 3.204-.507 4.925-1.439 6.38-3.69 9.891-9.129l.86-1.33c-.47-.21-.87-.56-1.181-1.04-1.103-1.687-.937-4.772-.349-7.006-1.546.455-2.912.67-4.235.67h-.054l-.091.003a.79.79 0 0 1-.809-.697c-.132-1.065 2.821-4.047 3.538-4.231.166-.044.335-.065.518-.065.298 0 .568.058.829.116.26.054.504.109.778.109.24 0 .477-.041.73-.123 1.05-.343 2.88-2.166 4.348-3.628A51 51 0 0 1 33.27 8.38l.02-.02.04-.03c.62-.477 1.35-1.096 2.125-1.752C38.412 4.074 42.092.959 45.248.69h.373l.226.252c.136.16.193.37.16.578-1.087 6.629-9.114 10.907-14.425 13.74-.426.228-.836.446-1.221.654a1.75 1.75 0 0 0-.63.646c-.463.83-.561 2.132-.294 3.873.122.786.281 1.051.338 1.126.247-.061.83-.575 1.185-.89.341-.304.693-.617 1.068-.885a.74.74 0 0 1 .427-.14c.257 0 .5.14.632.36.136.225.146.5.024.732l-.075.143C28.2 30.16 24.025 38.18 13.267 40.432c-.757.16-1.478.238-2.148.238zM41.865 4.663c-2.094.714-6.117 4.07-8.237 6.353l.253-.123c3.204-1.53 6.509-3.108 7.98-6.234z"/><path fill="#fff" d="M45.313 1.36c.02 0 .037.02.034.041-1.12 6.82-10.274 11.186-15.298 13.907-.382.207-.703.565-.9.912-.693 1.24-.574 2.996-.372 4.309.197 1.265.535 1.707.968 1.707.71 0 1.674-1.184 2.683-1.908a.1.1 0 0 1 .033-.01c.044 0 .082.05.058.098-4.756 9.132-8.883 17.149-19.384 19.349a9.8 9.8 0 0 1-2.009.224c-7.537 0-6.434-10.94-3.454-16.784.382-.751 2.253-4.435 3.309-4.435.267 0 .48.235.608.81.576 2.612-.55 6.135 2.23 7.982-3.102-.16-2.876-3.459-3.46-5.795-.062-.238-.153-.344-.268-.344-.633 0-1.928 3.167-2.037 3.456-2.36 6.428-.69 12.747 5.474 12.747 1.008 0 2.138-.17 3.39-.534 5.713-1.67 6.975-4.384 11.477-11.281l.18-.28c-3.11-.057-2.727-5.819-1.59-8.604.006-.02-.007-.04-.027-.04-2.203.778-3.857 1.033-5.247 1.033h-.088l-.054.003c-.822 0 2.27-3.428 2.899-3.591q.176-.044.348-.044c.487 0 .961.22 1.61.22.278 0 .586-.04.94-.156 1.686-.55 4.568-3.877 6.364-5.489 2.94-2.268 7.81-7.186 11.57-7.506M31.635 12.764s.01 0 .017-.003c4.168-2.235 9.617-3.82 11.224-8.833.007-.017-.003-.04-.02-.044a1 1 0 0 0-.308-.04c-2.642 0-10.48 6.988-10.943 8.883a.032.032 0 0 0 .03.037M45.313 0h-.108c-3.38.292-7.148 3.483-10.18 6.047-.76.643-1.478 1.252-2.087 1.721l-.023.017-.02.017-.018.014-.04.037a50 50 0 0 0-1.803 1.745c-1.269 1.261-3.183 3.173-4.08 3.465a1.7 1.7 0 0 1-.524.092c-.203 0-.406-.044-.64-.092a4.4 4.4 0 0 0-.97-.129q-.352-.001-.684.085c-.23.058-.845.218-2.428 1.993-1.61 1.803-1.682 2.462-1.614 2.983a1.47 1.47 0 0 0 1.478 1.292c.037 0 .078 0 .115-.003h.027c1.066 0 2.159-.133 3.336-.408-.396 2.187-.383 4.809.683 6.438.227.347.497.643.802.88l-.484.749c-3.511 5.442-4.827 7.476-9.512 8.846-1.093.32-2.108.483-3.015.483-1.816 0-3.183-.64-4.059-1.904-1.394-2.01-1.448-5.463-.145-9.01a9 9 0 0 1 .23-.558c.423 1.898 1.322 3.98 4.194 4.13l4.95.25-4.134-2.747c-1.28-.85-1.37-2.194-1.411-4.316-.02-.935-.037-1.901-.24-2.823-.372-1.694-1.472-1.877-1.928-1.877-1.127 0-2.321.877-4.503 5.156l-.01.02C4.12 27.195 2.95 34.263 5.402 38.296c1.218 2.003 3.197 3.06 5.724 3.06.714 0 1.482-.084 2.283-.254 11.069-2.32 15.52-10.86 20.23-19.903l.074-.143c.23-.442.213-.976-.044-1.401a1.42 1.42 0 0 0-1.211-.687c-.294 0-.578.091-.819.265-.402.289-.788.63-1.126.928-.112.099-.244.218-.379.33q-.014-.076-.027-.16c-.247-1.584-.172-2.74.213-3.435.088-.156.237-.312.362-.38.382-.208.792-.426 1.218-.654 5.43-2.894 13.633-7.268 14.776-14.23A1.394 1.394 0 0 0 45.309.01zM37.87 8.006q.773-.616 1.431-1.085c-.44.391-.92.748-1.43 1.085"/><path fill="#5f267a" d="M9.915 71.49c-1.722 0-3.217-.81-4.212-2.275-1.752-2.582-1.79-6.704-.104-11.03.013-.038 1.529-3.588 2.834-3.588h.078c.335.034.602.303.656.656.39 2.626 1.255 4.534 4.527 6.52.389.235.351.544.318.663-.055.19-.23.398-.569.398-.064 0-.128-.007-.165-.013-1.37-.242-2.673-1.13-3.826-1.915-.822-.561-1.672-1.14-2.132-1.14-.101 0-.152.031-.196.079-.162.17-.426.738-.369 2.653.048 1.472 2.304 6.01 4.889 6.01q.362-.001.713-.12c3.255-1.082 7.808-8.234 11.133-13.454 1.245-1.96 2.328-3.657 3.227-4.888q-.391.109-.788.11c-1.475 0-2.659-1.082-3.704-2.035-.646-.588-1.255-1.146-1.718-1.224a1 1 0 0 0-.17-.017c-.334 0-.473.248-.75 1.044-.291.833-.687 1.976-2.081 2.037-.26 0-.463-.115-.578-.313-.17-.292-.244-.738.845-2.636.03-.054 3.265-5.53 4.72-5.53.223 0 .422.096.56.273.366.493.69 1.027 1.005 1.544 1.04 1.703 2.023 3.312 4.043 3.312h.156c.483-.034 1.356-1.513 1.935-2.493.663-1.119 1.285-2.176 1.968-2.656.325-.228.65-.347.944-.347.531 0 .9.381.917.949.013.507-.89 2.027-6.005 9.547-.923 1.36-1.654 2.435-1.934 2.877-.694 1.099-1.394 2.262-2.135 3.49-2.053 3.41-4.178 6.938-6.238 9.131-2.693 2.867-5.389 4.38-7.79 4.38z"/><path fill="#fff" d="M33.1 41.625c.241 0 .403.15.41.453.02.724-6.84 10.522-7.858 12.138-2.656 4.2-5.568 9.621-8.315 12.546-2.787 2.966-5.352 4.221-7.422 4.221-4.394 0-6.552-5.66-3.846-12.608.196-.506 1.576-3.261 2.361-3.261h.03c.109.01.183.112.2.218.443 2.975 1.512 4.904 4.766 6.88.156.095.088.112.014.112a.4.4 0 0 1-.078-.007c-2.361-.415-4.719-3.06-6.045-3.06-.734 0-1.15.809-1.072 3.258.05 1.595 2.422 6.502 5.395 6.502.288 0 .579-.044.873-.143 4.655-1.547 11.255-13.978 14.685-18.627.551-.83.747-1.241.568-1.241q-.126 0-.497.261c-.467.266-.913.378-1.34.378-2.212 0-3.893-3.003-5.338-3.251a1.4 1.4 0 0 0-.254-.024c-1.58 0-.862 2.99-2.855 3.081h-.006c-1.005 0 3.853-7.458 5.016-7.458q.102-.001.163.074c1.502 2.038 2.462 5.051 5.446 5.051q.086 0 .176-.003c1.36-.099 2.821-4.29 4.174-5.241.24-.17.47-.256.653-.256m-.003-1.013c-.396 0-.826.153-1.232.439-.774.54-1.424 1.646-2.114 2.812-.453.766-1.204 2.038-1.59 2.245h-.064c-1.62 0-2.442-1.16-3.61-3.068-.32-.527-.652-1.071-1.021-1.568l-.01-.01-.01-.01a1.21 1.21 0 0 0-.961-.466c-.42 0-1.289 0-3.806 3.65-.71 1.03-2.361 3.543-2.361 4.645 0 .35.125.595.23.738.217.293.552.463.92.463h.037c1.75-.082 2.25-1.52 2.551-2.38.081-.236.2-.576.291-.701q.029-.002.064.006c.315.055.95.633 1.462 1.099 1 .915 2.236 2.04 3.782 2.156-.768 1.119-1.638 2.483-2.605 4.006-3.285 5.157-7.78 12.22-10.862 13.244a1.8 1.8 0 0 1-.555.092c-2.22 0-4.34-4.241-4.38-5.513-.045-1.405.097-1.976.175-2.184.386.116 1.18.657 1.729 1.03 1.194.814 2.547 1.736 4.022 1.997.081.014.169.02.254.02.622 0 .957-.414 1.055-.768.037-.13.18-.8-.545-1.238-3.115-1.89-3.91-3.625-4.286-6.16a1.256 1.256 0 0 0-1.231-1.09c-.748 0-1.424.574-2.263 1.92-.494.793-.917 1.657-1.045 1.99-1.746 4.483-1.688 8.782.159 11.503C6.373 71.116 8.017 72 9.91 72c2.548 0 5.37-1.571 8.16-4.54 2.097-2.235 4.235-5.786 6.305-9.22.738-1.225 1.435-2.385 2.128-3.48.274-.435 1.039-1.561 1.925-2.864 5.87-8.635 6.11-9.26 6.093-9.852-.024-.837-.623-1.442-1.425-1.442z"/><path fill="#5f267a" d="m36.93 28.967-1.7 2.597a.307.307 0 0 0 .087.424l2.583 1.709c.14.093.329.054.421-.088l1.7-2.596a.307.307 0 0 0-.087-.424l-2.583-1.71a.303.303 0 0 0-.421.088"/><path fill="#5f267a" d="M38.517 12.56a50 50 0 0 1-2.815 1.615.1.1 0 0 0-.007.174c10.754 6.506 15.047 19.57 9.557 29.67-3.495 6.432-10.138 10.163-17.408 10.578-.047 0-.091.03-.119.071l-1.437 2.391a.079.079 0 0 0 .07.12C39.025 56.225 49 45.6 49 32.625a24.65 24.65 0 0 0-10.274-20.06.19.19 0 0 0-.21-.006m-7.859-3.693a.057.057 0 0 0-.03-.096 24.4 24.4 0 0 0-6.13-.779C10.97 7.992 0 19.025 0 32.63c0 12.053 8.613 22.08 19.986 24.208a.06.06 0 0 0 .06-.027l1.695-2.547c.024-.038.004-.086-.037-.092a25.8 25.8 0 0 1-7.435-2.714C2.808 45.166-1.905 31.63 3.749 21.229c4.617-8.502 14.735-12.28 24.538-9.93.064.013.129 0 .173-.048.673-.684 1.593-1.7 2.198-2.384"/></g><defs><clipPath id="a"><path fill="#fff" d="M0 0h49v72H0z"/></clipPath></defs></svg>