<svg width="224" height="49" viewBox="0 0 224 49" fill="none" xmlns="http://www.w3.org/2000/svg"><path d="M13.45 46.666c.254.049.614 0 .943-.074 1.732-.406 3.32-.07 4.868.774 1.536.84 3.146 1.23 4.873.47a3.108 3.108 0 0 1 2.246-.117c1.345.449 2.844.267 4.094 1.1.36.24.795.225 1.218.048 2.003-.833 4.053-.774 6.187-.646 3.374.198 6.775.038 10.165 0 .498 0 1.038-.059 1.489-.256 2.701-1.165 5.45-.946 8.215-.348 1.383.3 2.76.946 4.163.091 2.644.257 5.202-.651 7.835-.609.508.006 1.059-.155 1.467.203.794.7 1.653.583 2.611.513 2.267-.16 4.54-.4 6.828-.117.847.106 1.674.17 2.458.544 1.361.658 2.749.647 4.21.289 1.283-.315 2.517-.721 3.963-.438 1.197.235 2.468.117 3.724.449 1.631.427 3.353.256 5-.048 2.309-.433 4.651-.61 6.965-.967 1.002-.155 1.854-.038 2.638.54 1.049.78 2.172.833 3.385.539 1.393-.342 2.802-.62 4.2-.951a5.479 5.479 0 0 1 1.748-.155c2.019.15 4.053.085 6.034.662.741.214 1.509.134 2.256-.085.811-.24 1.632-.454 2.442-.7.832-.251 1.616-.331 2.468.048.514.23 1.166.305 1.733.235 1.048-.128 2.007-.16 2.855.62a.662.662 0 0 0 .932-.048c.604-.647 1.245-.802 2.034-.369.392.214.81.112 1.234 0 1.388-.385 2.802-.673 4.169-1.122 1.875-.609 3.644-.545 5.334.524.524.331 1.096.411 1.705.39 1.277-.038 2.559-.14 3.745-.599 1.542-.603 3.083-.785 4.688-.464 1.441.288 2.844-.203 4.285-.209 1.16 0 2.32-.529 3.475.064 1.292-.566 2.633.064 3.946-.181a6.25 6.25 0 0 1 2.776.101c.582.16 1.16.214 1.753.048.625-.176 1.192.016 1.658.422.985.86 2.145.989 3.348.828 2.208-.288 4.375.225 6.563.273.159 0 .381.01.471.112 1.017 1.149 2.145.647 3.279.257 2.076-.716 4.333-.786 6.324-1.806 2.124.176 4.19-.369 6.293-.486.482-.027.768.277 1.107.523.763.561 1.542.567 2.368.086 1.472-.86 2.961-1.566 4.783-1.357.858.096 1.706-.657 2.68-.406.339.085.636-.209.832-.497.63-.94 1.557-1.539 2.426-2.228 1.123-.887 2.272-1.843 2.24-3.52-.01-.556.297-1.005.721-1.293.932-.626 1.229-1.587 1.488-2.586.149-.577.297-1.16.472-1.726.185-.598.227-1.202-.127-1.725-1.51-2.228-1.309-4.723-.986-7.165.265-2.019-.19-3.883-.662-5.78-.122-.492-.487-.951-.498-1.432-.031-1.64-.471-3.179-.863-4.755-.196-.79-.286-1.485-1.028-1.896-.725-.4-.874-1.24-1.403-1.79-1.118-1.16-2.305-2.26-3.359-3.478-.678-.78-1.419-1.164-2.426-1.074-.588.054-1.207-.026-1.769.123-.784.203-1.494.171-2.219-.16-.466-.208-.943-.342-1.473-.15-.217.08-.63.118-.72 0-.816-1.084-2.22-.705-3.199-1.367-1.367-.924-2.85-.978-4.392-.545-1.202.336-2.357.09-3.48-.353-1.086-.427-2.267-.513-3.565-.23a4.17 4.17 0 0 1-1.763.033c-2.098-.433-4.211-.326-6.325-.107-.418.042-.847.016-1.261.075-1.107.154-2.187-.481-3.225-.284-1.023.198-1.987.262-3.004.113-.492-.07-1.038-.065-1.515.074-2.405.716-4.852.444-7.299.454-2.256.006-4.571-.17-6.685.925-.905.47-1.811.464-2.69.058-.827-.384-1.6-.502-2.426-.048-.392.214-.806.16-1.229.048a85.353 85.353 0 0 0-3.661-.93c-1.212-.272-2.373-.037-3.437.573-1.531.881-3.051.865-4.603.106-.948-.464-1.886-.582-2.94-.203-1.504.54-3.051.855-4.502-.25-.355-.268-.811-.124-1.235-.065-1.843.262-3.67.326-5.545.128-1.007-.106-1.807-.192-2.358-1.122-.238-.406-.683-.496-1.123-.395a39.18 39.18 0 0 0-2.203.577c-.975.283-1.928.679-2.919.87-1.621.31-3.215.316-4.502-1.02-.588-.614-1.303-.715-2.108-.464-.726.23-1.483.363-2.209.593-2.241.71-4.545.208-6.812.406-.757.064-1.52.053-2.278.09-1.853.091-3.697.401-5.556-.058-.551-.14-1.181-.032-1.764.043-1.584.203-3.183-.049-4.762.181-.201.032-.567-.133-.635-.299C88.67.225 87.95.466 87.044.684c-2.638.641-5.323 1.01-8.056.764-2.013-.181-4.063.262-6.06-.336-2.06.603-4.222-.022-6.287.518-.594.155-1.166.085-1.759.01a87.097 87.097 0 0 0-3.538-.341c-.588-.048-1.213-.182-1.77-.054-2.69.641-5.402.027-8.083.209-1.753.122-3.289-.065-4.714-1.144-.567-.432-1.298-.347-1.965-.139-.482.15-.938.45-1.425.535-1.488.267-2.807 1.159-4.417 1.036-1.51-.117-2.935.823-4.482.577-.662-.107-1.139.246-1.663.502-1.213.604-2.41.802-3.607-.032-.503-.347-.906-.342-1.266.235-.17.273-.434.604-.715.673-1.653.428-3.343.385-5.032.32-.154-.004-.371-.09-.445-.207-.694-1.138-1.716-.834-2.723-.679-2.58.4-5.154.892-7.75 1.154-1.562.16-2.86 1.063-4.38 1.266-.302.043-.614.294-.853.518-.73.7-1.372 1.47-2.351 1.897-.62.267-.98.919-1.092 1.645-.44 2.95-.879 5.893-1.324 8.842.535 1.261-.069 2.244-.694 3.275-.249.411-.302.972-.355 1.47-.095.849-.08 1.709-.2 2.553-.107.726-.006 1.335.486 1.896.768.877 1.092 1.95.996 3.088-.212 2.522 1.012 4.809 1.123 7.271.016.342.239.604.503.85 1.674 1.533 2.813 3.569 4.588 5.011 1.165 2.388 3.5 2.367 5.694 2.783l.02.017Z" fill="#5A5A5A"/></svg>